<?xml version="1.0" encoding="UTF-8" standalone="no"?>
<!DOCTYPE svg PUBLIC "-//W3C//DTD SVG 1.1//EN"
 "http://www.w3.org/Graphics/SVG/1.1/DTD/svg11.dtd">
<!-- Generated by graphviz version 13.0.1 (20250615.1724)
 -->
<!-- Title: trust Pages: 1 -->
<svg width="944pt" height="425pt"
 viewBox="0.00 0.00 944.00 425.00" xmlns="http://www.w3.org/2000/svg" xmlns:xlink="http://www.w3.org/1999/xlink">
<g id="graph0" class="graph" transform="scale(1 1) rotate(0) translate(4 420.5)">
<title>trust</title>
<!-- ship -->
<g id="node1" class="node">
<title>ship</title>
<path fill="#e8eefc" stroke="#2f5fd0" stroke-width="1.2" d="M209.5,-416.5C209.5,-416.5 12,-416.5 12,-416.5 6,-416.5 0,-410.5 0,-404.5 0,-404.5 0,-382.25 0,-382.25 0,-376.25 6,-370.25 12,-370.25 12,-370.25 209.5,-370.25 209.5,-370.25 215.5,-370.25 221.5,-376.25 221.5,-382.25 221.5,-382.25 221.5,-404.5 221.5,-404.5 221.5,-410.5 215.5,-416.5 209.5,-416.5"/>
<text xml:space="preserve" text-anchor="middle" x="110.75" y="-401.1" font-family="Helvetica,Arial,sans-serif" font-size="12.00">openVmOptimizer / sp1Optimizer /</text>
<text xml:space="preserve" text-anchor="middle" x="110.75" y="-388.35" font-family="Helvetica,Arial,sans-serif" font-size="12.00">simpleOptimizer maintainsCorrectness</text>
<text xml:space="preserve" text-anchor="middle" x="110.75" y="-375.6" font-family="Helvetica,Arial,sans-serif" font-size="12.00">(shipped theorems)</text>
</g>
<!-- master -->
<g id="node2" class="node">
<title>master</title>
<path fill="#e4f5e9" stroke="#2e9e5b" stroke-width="1.2" d="M426.62,-334.25C426.62,-334.25 304.88,-334.25 304.88,-334.25 298.88,-334.25 292.88,-328.25 292.88,-322.25 292.88,-322.25 292.88,-300 292.88,-300 292.88,-294 298.88,-288 304.88,-288 304.88,-288 426.62,-288 426.62,-288 432.62,-288 438.62,-294 438.62,-300 438.62,-300 438.62,-322.25 438.62,-322.25 438.62,-328.25 432.62,-334.25 426.62,-334.25"/>
<text xml:space="preserve" text-anchor="middle" x="365.75" y="-318.85" font-family="Helvetica,Arial,sans-serif" font-size="12.00">optimizerWithBusFacts_</text>
<text xml:space="preserve" text-anchor="middle" x="365.75" y="-306.1" font-family="Helvetica,Arial,sans-serif" font-size="12.00">maintainsCorrectness</text>
<text xml:space="preserve" text-anchor="middle" x="365.75" y="-293.35" font-family="Helvetica,Arial,sans-serif" font-size="12.00">(master theorem)</text>
</g>
<!-- ship&#45;&gt;master -->
<g id="edge1" class="edge">
<title>ship&#45;&gt;master</title>
<path fill="none" stroke="#8a8f98" d="M182.8,-369.7C214.71,-359.66 252.37,-347.81 285.2,-337.47"/>
<polygon fill="#8a8f98" stroke="#8a8f98" points="285.64,-340.27 292.43,-335.2 283.96,-334.93 285.64,-340.27"/>
</g>
<!-- correct -->
<g id="node3" class="node">
<title>correct</title>
<path fill="#e4f5e9" stroke="#2e9e5b" stroke-width="1.2" d="M457.75,-252C457.75,-252 363.75,-252 363.75,-252 357.75,-252 351.75,-246 351.75,-240 351.75,-240 351.75,-228 351.75,-228 351.75,-222 357.75,-216 363.75,-216 363.75,-216 457.75,-216 457.75,-216 463.75,-216 469.75,-222 469.75,-228 469.75,-228 469.75,-240 469.75,-240 469.75,-246 463.75,-252 457.75,-252"/>
<text xml:space="preserve" text-anchor="middle" x="410.75" y="-228.97" font-family="Helvetica,Arial,sans-serif" font-size="12.00">Optimizer.isCorrect</text>
</g>
<!-- master&#45;&gt;correct -->
<g id="edge2" class="edge">
<title>master&#45;&gt;correct</title>
<path fill="none" stroke="#8a8f98" d="M379.25,-287.59C384.35,-279.07 390.19,-269.32 395.45,-260.55"/>
<polygon fill="#8a8f98" stroke="#8a8f98" points="397.77,-262.11 399.48,-253.81 392.97,-259.23 397.77,-262.11"/>
</g>
<!-- sound -->
<g id="node4" class="node">
<title>sound</title>
<path fill="#e4f5e9" stroke="#2e9e5b" stroke-width="1.2" d="M606.5,-180C606.5,-180 487,-180 487,-180 481,-180 475,-174 475,-168 475,-168 475,-156 475,-156 475,-150 481,-144 487,-144 487,-144 606.5,-144 606.5,-144 612.5,-144 618.5,-150 618.5,-156 618.5,-156 618.5,-168 618.5,-168 618.5,-174 612.5,-180 606.5,-180"/>
<text xml:space="preserve" text-anchor="middle" x="546.75" y="-163.35" font-family="Helvetica,Arial,sans-serif" font-size="12.00">isSoundReplacementOf</text>
<text xml:space="preserve" text-anchor="middle" x="546.75" y="-150.6" font-family="Helvetica,Arial,sans-serif" font-size="12.00">(soundness)</text>
</g>
<!-- correct&#45;&gt;sound -->
<g id="edge3" class="edge">
<title>correct&#45;&gt;sound</title>
<path fill="none" stroke="#8a8f98" d="M444.72,-215.52C462.81,-206.2 485.23,-194.66 504.45,-184.77"/>
<polygon fill="#8a8f98" stroke="#8a8f98" points="505.57,-187.35 511.4,-181.2 503,-182.37 505.57,-187.35"/>
</g>
<!-- complete -->
<g id="node5" class="node">
<title>complete</title>
<path fill="#e4f5e9" stroke="#2e9e5b" stroke-width="1.2" d="M784.75,-180C784.75,-180 648.75,-180 648.75,-180 642.75,-180 636.75,-174 636.75,-168 636.75,-168 636.75,-156 636.75,-156 636.75,-150 642.75,-144 648.75,-144 648.75,-144 784.75,-144 784.75,-144 790.75,-144 796.75,-150 796.75,-156 796.75,-156 796.75,-168 796.75,-168 796.75,-174 790.75,-180 784.75,-180"/>
<text xml:space="preserve" text-anchor="middle" x="716.75" y="-163.35" font-family="Helvetica,Arial,sans-serif" font-size="12.00">isCompleteReplacementOf</text>
<text xml:space="preserve" text-anchor="middle" x="716.75" y="-150.6" font-family="Helvetica,Arial,sans-serif" font-size="12.00">(completeness)</text>
</g>
<!-- correct&#45;&gt;complete -->
<g id="edge4" class="edge">
<title>correct&#45;&gt;complete</title>
<path fill="none" stroke="#8a8f98" d="M470.11,-219.42C515.77,-208.97 579.52,-194.39 630.76,-182.67"/>
<polygon fill="#8a8f98" stroke="#8a8f98" points="631.2,-185.44 638.37,-180.93 629.95,-179.98 631.2,-185.44"/>
</g>
<!-- degree -->
<g id="node6" class="node">
<title>degree</title>
<path fill="#e4f5e9" stroke="#2e9e5b" stroke-width="1.2" d="M444.75,-180C444.75,-180 278.75,-180 278.75,-180 272.75,-180 266.75,-174 266.75,-168 266.75,-168 266.75,-156 266.75,-156 266.75,-150 272.75,-144 278.75,-144 278.75,-144 444.75,-144 444.75,-144 450.75,-144 456.75,-150 456.75,-156 456.75,-156 456.75,-168 456.75,-168 456.75,-174 450.75,-180 444.75,-180"/>
<text xml:space="preserve" text-anchor="middle" x="361.75" y="-156.97" font-family="Helvetica,Arial,sans-serif" font-size="12.00">optimizerRespectsDegreeBound</text>
</g>
<!-- correct&#45;&gt;degree -->
<g id="edge5" class="edge">
<title>correct&#45;&gt;degree</title>
<path fill="none" stroke="#8a8f98" d="M398.64,-215.7C392.85,-207.43 385.81,-197.38 379.44,-188.27"/>
<polygon fill="#8a8f98" stroke="#8a8f98" points="381.81,-186.78 374.93,-181.83 377.23,-189.99 381.81,-186.78"/>
</g>
<!-- passes -->
<g id="node7" class="node">
<title>passes</title>
<path fill="#e4f5e9" stroke="#2e9e5b" stroke-width="1.2" d="M703.5,-108C703.5,-108 560,-108 560,-108 554,-108 548,-102 548,-96 548,-96 548,-84 548,-84 548,-78 554,-72 560,-72 560,-72 703.5,-72 703.5,-72 709.5,-72 715.5,-78 715.5,-84 715.5,-84 715.5,-96 715.5,-96 715.5,-102 709.5,-108 703.5,-108"/>
<text xml:space="preserve" text-anchor="middle" x="631.75" y="-91.35" font-family="Helvetica,Arial,sans-serif" font-size="12.00">per&#45;pass PassCorrect proofs</text>
<text xml:space="preserve" text-anchor="middle" x="631.75" y="-78.6" font-family="Helvetica,Arial,sans-serif" font-size="12.00">(one per optimization pass)</text>
</g>
<!-- sound&#45;&gt;passes -->
<g id="edge6" class="edge">
<title>sound&#45;&gt;passes</title>
<path fill="none" stroke="#8a8f98" d="M567.76,-143.7C578.41,-134.93 591.5,-124.15 603.06,-114.63"/>
<polygon fill="#8a8f98" stroke="#8a8f98" points="604.83,-116.8 609.22,-109.55 601.27,-112.48 604.83,-116.8"/>
</g>
<!-- complete&#45;&gt;passes -->
<g id="edge7" class="edge">
<title>complete&#45;&gt;passes</title>
<path fill="none" stroke="#8a8f98" d="M695.74,-143.7C685.09,-134.93 672,-124.15 660.44,-114.63"/>
<polygon fill="#8a8f98" stroke="#8a8f98" points="662.23,-112.48 654.28,-109.55 658.67,-116.8 662.23,-112.48"/>
</g>
<!-- fix -->
<g id="node8" class="node">
<title>fix</title>
<path fill="#e4f5e9" stroke="#2e9e5b" stroke-width="1.2" d="M608.75,-36C608.75,-36 472.75,-36 472.75,-36 466.75,-36 460.75,-30 460.75,-24 460.75,-24 460.75,-12 460.75,-12 460.75,-6 466.75,0 472.75,0 472.75,0 608.75,0 608.75,0 614.75,0 620.75,-6 620.75,-12 620.75,-12 620.75,-24 620.75,-24 620.75,-30 614.75,-36 608.75,-36"/>
<text xml:space="preserve" text-anchor="middle" x="540.75" y="-19.35" font-family="Helvetica,Arial,sans-serif" font-size="12.00">fixpoint terminates</text>
<text xml:space="preserve" text-anchor="middle" x="540.75" y="-6.6" font-family="Helvetica,Arial,sans-serif" font-size="12.00">(sizeKey_wf, well&#45;founded)</text>
</g>
<!-- passes&#45;&gt;fix -->
<g id="edge8" class="edge">
<title>passes&#45;&gt;fix</title>
<path fill="none" stroke="#8a8f98" d="M609.26,-71.7C597.75,-62.85 583.58,-51.94 571.12,-42.36"/>
<polygon fill="#8a8f98" stroke="#8a8f98" points="572.87,-40.17 564.82,-37.51 569.45,-44.61 572.87,-40.17"/>
</g>
<!-- facts -->
<g id="node9" class="node">
<title>facts</title>
<path fill="#e4f5e9" stroke="#2e9e5b" stroke-width="1.2" d="M794.88,-36C794.88,-36 650.62,-36 650.62,-36 644.62,-36 638.62,-30 638.62,-24 638.62,-24 638.62,-12 638.62,-12 638.62,-6 644.62,0 650.62,0 650.62,0 794.88,0 794.88,0 800.88,0 806.88,-6 806.88,-12 806.88,-12 806.88,-24 806.88,-24 806.88,-30 800.88,-36 794.88,-36"/>
<text xml:space="preserve" text-anchor="middle" x="722.75" y="-20.1" font-family="Helvetica,Arial,sans-serif" font-size="12.00">proven BusFacts</text>
<text xml:space="preserve" text-anchor="middle" x="722.75" y="-7.35" font-family="Helvetica,Arial,sans-serif" font-size="12.00">(wrong fact ⇒ won&#39;t compile)</text>
</g>
<!-- passes&#45;&gt;facts -->
<g id="edge9" class="edge">
<title>passes&#45;&gt;facts</title>
<path fill="none" stroke="#8a8f98" d="M654.24,-71.7C665.75,-62.85 679.92,-51.94 692.38,-42.36"/>
<polygon fill="#8a8f98" stroke="#8a8f98" points="694.05,-44.61 698.68,-37.51 690.63,-40.17 694.05,-44.61"/>
</g>
<!-- sem -->
<g id="node10" class="node">
<title>sem</title>
<path fill="#fdf1dd" stroke="#d99413" stroke-width="1.2" d="M479.5,-411.38C479.5,-411.38 252,-411.38 252,-411.38 246,-411.38 240,-405.38 240,-399.38 240,-399.38 240,-387.38 240,-387.38 240,-381.38 246,-375.38 252,-375.38 252,-375.38 479.5,-375.38 479.5,-375.38 485.5,-375.38 491.5,-381.38 491.5,-387.38 491.5,-387.38 491.5,-399.38 491.5,-399.38 491.5,-405.38 485.5,-411.38 479.5,-411.38"/>
<text xml:space="preserve" text-anchor="middle" x="365.75" y="-394.73" font-family="Helvetica,Arial,sans-serif" font-size="12.00">VM bus semantics faithful</text>
<text xml:space="preserve" text-anchor="middle" x="365.75" y="-381.98" font-family="Helvetica,Arial,sans-serif" font-size="12.00">(openVmBusSemantics / sp1BusSemantics)</text>
</g>
<!-- sem&#45;&gt;master -->
<g id="edge10" class="edge">
<title>sem&#45;&gt;master</title>
<path fill="none" stroke="#d99413" stroke-dasharray="5,2" d="M365.75,-374.96C365.75,-365.93 365.75,-354.6 365.75,-344.06"/>
<polygon fill="#d99413" stroke="#d99413" points="368.55,-344.21 365.75,-336.21 362.95,-344.21 368.55,-344.21"/>
</g>
<!-- admis -->
<g id="node11" class="node">
<title>admis</title>
<path fill="#fdf1dd" stroke="#d99413" stroke-width="1.2" d="M923.5,-411.38C923.5,-411.38 768,-411.38 768,-411.38 762,-411.38 756,-405.38 756,-399.38 756,-399.38 756,-387.38 756,-387.38 756,-381.38 762,-375.38 768,-375.38 768,-375.38 923.5,-375.38 923.5,-375.38 929.5,-375.38 935.5,-381.38 935.5,-387.38 935.5,-387.38 935.5,-399.38 935.5,-399.38 935.5,-405.38 929.5,-411.38 923.5,-411.38"/>
<text xml:space="preserve" text-anchor="middle" x="845.75" y="-394.73" font-family="Helvetica,Arial,sans-serif" font-size="12.00">memory discipline / admissible</text>
<text xml:space="preserve" text-anchor="middle" x="845.75" y="-381.98" font-family="Helvetica,Arial,sans-serif" font-size="12.00">(Blum et al. offline checking)</text>
</g>
<!-- admis&#45;&gt;complete -->
<g id="edge11" class="edge">
<title>admis&#45;&gt;complete</title>
<path fill="none" stroke="#d99413" stroke-dasharray="5,2" d="M836.05,-375.13C813.55,-335.12 757.67,-235.76 731.15,-188.61"/>
<polygon fill="#d99413" stroke="#d99413" points="733.66,-187.36 727.3,-181.76 728.78,-190.11 733.66,-187.36"/>
</g>
<!-- inp -->
<g id="node12" class="node">
<title>inp</title>
<path fill="#fdf1dd" stroke="#d99413" stroke-width="1.2" d="M726.25,-416.5C726.25,-416.5 521.25,-416.5 521.25,-416.5 515.25,-416.5 509.25,-410.5 509.25,-404.5 509.25,-404.5 509.25,-382.25 509.25,-382.25 509.25,-376.25 515.25,-370.25 521.25,-370.25 521.25,-370.25 726.25,-370.25 726.25,-370.25 732.25,-370.25 738.25,-376.25 738.25,-382.25 738.25,-382.25 738.25,-404.5 738.25,-404.5 738.25,-410.5 732.25,-416.5 726.25,-416.5"/>
<text xml:space="preserve" text-anchor="middle" x="623.75" y="-401.1" font-family="Helvetica,Arial,sans-serif" font-size="12.00">input&#45;circuit assumptions</text>
<text xml:space="preserve" text-anchor="middle" x="623.75" y="-388.35" font-family="Helvetica,Arial,sans-serif" font-size="12.00">(chrono order · invariants · degree ·</text>
<text xml:space="preserve" text-anchor="middle" x="623.75" y="-375.6" font-family="Helvetica,Arial,sans-serif" font-size="12.00">pinned PC lookups · byte&#45;ranged writes)</text>
</g>
<!-- inp&#45;&gt;sound -->
<g id="edge13" class="edge">
<title>inp&#45;&gt;sound</title>
<path fill="none" stroke="#d99413" stroke-dasharray="5,2" d="M616.23,-369.96C601.92,-327.34 570.85,-234.8 555.58,-189.31"/>
<polygon fill="#d99413" stroke="#d99413" points="558.26,-188.49 553.06,-181.79 552.95,-190.27 558.26,-188.49"/>
</g>
<!-- inp&#45;&gt;complete -->
<g id="edge12" class="edge">
<title>inp&#45;&gt;complete</title>
<path fill="none" stroke="#d99413" stroke-dasharray="5,2" d="M632.84,-369.96C650.15,-327.25 687.8,-234.41 706.2,-189.03"/>
<polygon fill="#d99413" stroke="#d99413" points="708.73,-190.23 709.14,-181.76 703.54,-188.12 708.73,-190.23"/>
</g>
</g>
</svg>
